<svg width="24" height="24" viewBox="0 0 24 24" fill="none" xmlns="http://www.w3.org/2000/svg">
<path d="M19.8983 11.6891C19.7554 11.4935 16.3496 6.90137 11.9999 6.90137C7.65019 6.90137 4.24431 11.4935 4.10153 11.6889C3.96616 11.8744 3.96616 12.126 4.10153 12.3115C4.24431 12.507 7.65019 17.0992 11.9999 17.0992C16.3496 17.0992 19.7554 12.507 19.8983 12.3116C20.0339 12.1262 20.0339 11.8744 19.8983 11.6891ZM11.9999 16.0442C8.79588 16.0442 6.02085 12.9963 5.19938 11.9999C6.01979 11.0026 8.78901 7.95631 11.9999 7.95631C15.2038 7.95631 17.9787 11.0037 18.8005 12.0006C17.9801 12.9979 15.2108 16.0442 11.9999 16.0442Z" fill="#464646"/>
<path d="M11.9998 8.83496C10.2547 8.83496 8.83496 10.2547 8.83496 11.9998C8.83496 13.7449 10.2547 15.1647 11.9998 15.1647C13.7449 15.1647 15.1646 13.7449 15.1646 11.9998C15.1646 10.2547 13.7449 8.83496 11.9998 8.83496ZM11.9998 14.1097C10.8364 14.1097 9.88993 13.1632 9.88993 11.9998C9.88993 10.8364 10.8364 9.88993 11.9998 9.88993C13.1632 9.88993 14.1097 10.8364 14.1097 11.9998C14.1097 13.1632 13.1632 14.1097 11.9998 14.1097Z" fill="#464646"/>
<path d="M1.63281 7.46875L22.3661 16.5314" stroke="#FFB574" stroke-width="2" stroke-linecap="round"/>
<path d="M4.07812 8.5376L19.6213 15.3316" stroke="#464646" stroke-linecap="round"/>
</svg>
